<mxfile host="app.diagrams.net" modified="2023-07-30T03:07:14.925Z" agent="Mozilla/5.0 (Windows NT 10.0; Win64; x64) AppleWebKit/537.36 (KHTML, like Gecko) Chrome/115.0.0.0 Safari/537.36" etag="ORQqAs3O8xXi_T5CUmzV" version="21.6.6" type="github">
  <diagram name="PÃ¡gina-1" id="Mbmdlvuc3ISE-hzkfrJS">
    <mxGraphModel dx="1434" dy="768" grid="1" gridSize="10" guides="1" tooltips="1" connect="1" arrows="1" fold="1" page="1" pageScale="1" pageWidth="827" pageHeight="1169" math="0" shadow="0">
      <root>
        <mxCell id="0" />
        <mxCell id="1" parent="0" />
        <mxCell id="F_t2Z-i2irXVNuNtdFWY-15" value="local" style="swimlane;startSize=23;" vertex="1" parent="1">
          <mxGeometry x="50" y="70" width="590" height="480" as="geometry" />
        </mxCell>
        <mxCell id="F_t2Z-i2irXVNuNtdFWY-8" value="" style="image;aspect=fixed;html=1;points=[];align=center;fontSize=12;image=img/lib/azure2/databases/Azure_Database_PostgreSQL_Server_Group.svg;" vertex="1" parent="F_t2Z-i2irXVNuNtdFWY-15">
          <mxGeometry x="86" y="330" width="60" height="68" as="geometry" />
        </mxCell>
        <mxCell id="F_t2Z-i2irXVNuNtdFWY-11" style="edgeStyle=orthogonalEdgeStyle;rounded=0;orthogonalLoop=1;jettySize=auto;html=1;" edge="1" parent="F_t2Z-i2irXVNuNtdFWY-15" source="F_t2Z-i2irXVNuNtdFWY-3" target="F_t2Z-i2irXVNuNtdFWY-8">
          <mxGeometry relative="1" as="geometry" />
        </mxCell>
        <mxCell id="F_t2Z-i2irXVNuNtdFWY-12" style="edgeStyle=orthogonalEdgeStyle;rounded=0;orthogonalLoop=1;jettySize=auto;html=1;" edge="1" parent="F_t2Z-i2irXVNuNtdFWY-15" source="F_t2Z-i2irXVNuNtdFWY-8" target="F_t2Z-i2irXVNuNtdFWY-5">
          <mxGeometry relative="1" as="geometry" />
        </mxCell>
        <mxCell id="F_t2Z-i2irXVNuNtdFWY-16" value="docker-container" style="swimlane;whiteSpace=wrap;html=1;startSize=23;" vertex="1" parent="F_t2Z-i2irXVNuNtdFWY-15">
          <mxGeometry x="21" y="280" width="190" height="140" as="geometry">
            <mxRectangle x="21" y="280" width="140" height="30" as="alternateBounds" />
          </mxGeometry>
        </mxCell>
        <mxCell id="F_t2Z-i2irXVNuNtdFWY-23" value="" style="edgeStyle=orthogonalEdgeStyle;rounded=0;orthogonalLoop=1;jettySize=auto;html=1;entryX=0.456;entryY=0.225;entryDx=0;entryDy=0;entryPerimeter=0;" edge="1" parent="F_t2Z-i2irXVNuNtdFWY-15" source="F_t2Z-i2irXVNuNtdFWY-17" target="F_t2Z-i2irXVNuNtdFWY-3">
          <mxGeometry relative="1" as="geometry">
            <mxPoint x="380" y="80" as="targetPoint" />
            <Array as="points">
              <mxPoint x="383" y="80" />
              <mxPoint x="383" y="70" />
              <mxPoint x="291" y="70" />
            </Array>
          </mxGeometry>
        </mxCell>
        <mxCell id="F_t2Z-i2irXVNuNtdFWY-17" value="Client" style="sketch=0;outlineConnect=0;fontColor=#232F3E;gradientColor=none;strokeColor=#232F3E;fillColor=#ffffff;dashed=0;verticalLabelPosition=bottom;verticalAlign=top;align=center;html=1;fontSize=12;fontStyle=0;aspect=fixed;shape=mxgraph.aws4.resourceIcon;resIcon=mxgraph.aws4.client;" vertex="1" parent="F_t2Z-i2irXVNuNtdFWY-15">
          <mxGeometry x="460" y="50" width="60" height="60" as="geometry" />
        </mxCell>
        <mxCell id="F_t2Z-i2irXVNuNtdFWY-21" value="" style="edgeStyle=orthogonalEdgeStyle;rounded=0;orthogonalLoop=1;jettySize=auto;html=1;" edge="1" parent="F_t2Z-i2irXVNuNtdFWY-15" source="F_t2Z-i2irXVNuNtdFWY-18" target="F_t2Z-i2irXVNuNtdFWY-3">
          <mxGeometry relative="1" as="geometry">
            <mxPoint x="380" y="180" as="targetPoint" />
          </mxGeometry>
        </mxCell>
        <mxCell id="F_t2Z-i2irXVNuNtdFWY-18" value="Mobile client" style="sketch=0;outlineConnect=0;fontColor=#232F3E;gradientColor=none;strokeColor=#232F3E;fillColor=#ffffff;dashed=0;verticalLabelPosition=bottom;verticalAlign=top;align=center;html=1;fontSize=12;fontStyle=0;aspect=fixed;shape=mxgraph.aws4.resourceIcon;resIcon=mxgraph.aws4.mobile_client;" vertex="1" parent="F_t2Z-i2irXVNuNtdFWY-15">
          <mxGeometry x="460" y="150" width="60" height="60" as="geometry" />
        </mxCell>
        <mxCell id="F_t2Z-i2irXVNuNtdFWY-24" style="edgeStyle=orthogonalEdgeStyle;rounded=0;orthogonalLoop=1;jettySize=auto;html=1;entryX=0.833;entryY=0.863;entryDx=0;entryDy=0;entryPerimeter=0;" edge="1" parent="F_t2Z-i2irXVNuNtdFWY-15" source="F_t2Z-i2irXVNuNtdFWY-19" target="F_t2Z-i2irXVNuNtdFWY-3">
          <mxGeometry relative="1" as="geometry">
            <Array as="points">
              <mxPoint x="331" y="298" />
              <mxPoint x="331" y="180" />
              <mxPoint x="325" y="180" />
            </Array>
          </mxGeometry>
        </mxCell>
        <mxCell id="F_t2Z-i2irXVNuNtdFWY-19" value="" style="sketch=0;outlineConnect=0;fontColor=#232F3E;gradientColor=none;fillColor=#232F3D;strokeColor=none;dashed=0;verticalLabelPosition=bottom;verticalAlign=top;align=center;html=1;fontSize=12;fontStyle=0;aspect=fixed;pointerEvents=1;shape=mxgraph.aws4.client;" vertex="1" parent="F_t2Z-i2irXVNuNtdFWY-15">
          <mxGeometry x="462.53" y="250" width="57.47" height="56" as="geometry" />
        </mxCell>
        <mxCell id="F_t2Z-i2irXVNuNtdFWY-6" value="" style="group" vertex="1" connectable="0" parent="F_t2Z-i2irXVNuNtdFWY-15">
          <mxGeometry x="250" y="110" width="90" height="120" as="geometry" />
        </mxCell>
        <mxCell id="F_t2Z-i2irXVNuNtdFWY-3" value="" style="sketch=0;html=1;dashed=0;whitespace=wrap;fillColor=#2875E2;strokeColor=#ffffff;points=[[0.005,0.63,0],[0.1,0.2,0],[0.9,0.2,0],[0.5,0,0],[0.995,0.63,0],[0.72,0.99,0],[0.5,1,0],[0.28,0.99,0]];verticalLabelPosition=bottom;align=center;verticalAlign=top;shape=mxgraph.kubernetes.icon;prIcon=api" vertex="1" parent="F_t2Z-i2irXVNuNtdFWY-6">
          <mxGeometry width="90" height="80" as="geometry" />
        </mxCell>
        <mxCell id="F_t2Z-i2irXVNuNtdFWY-5" value="" style="dashed=0;outlineConnect=0;html=1;align=center;labelPosition=center;verticalLabelPosition=bottom;verticalAlign=top;shape=mxgraph.webicons.java;gradientColor=#DFDEDE" vertex="1" parent="F_t2Z-i2irXVNuNtdFWY-6">
          <mxGeometry x="18.80000000000001" y="80" width="52.4" height="40" as="geometry" />
        </mxCell>
      </root>
    </mxGraphModel>
  </diagram>
</mxfile>
